<?xml version="1.0" encoding="UTF-8" standalone="no"?>

<svg width="1024" height="1024">

	<rect x="0" y="0" width="1024" height="1024" style="fill:rgb(255,255,255);stroke-width:0;stroke:rgb(0,0,0)"></rect>

	<line x1="300" y1="100" x2="700" y2="100" style="stroke:rgb(0,0,0);stroke-width:10" />	
	<line x1="300" y1="100" x2="300" y2="300" style="stroke:rgb(0,0,0);stroke-width:10" />	
	<line x1="200" y1="300" x2="400" y2="300" style="stroke:rgb(0,0,0);stroke-width:10" />	
	<line x1="200" y1="300" x2="200" y2="500" style="stroke:rgb(0,0,0);stroke-width:10" />	
	<line x1="400" y1="300" x2="400" y2="500" style="stroke:rgb(0,0,0);stroke-width:10" />	
	<line x1="700" y1="100" x2="700" y2="300" style="stroke:rgb(0,0,0);stroke-width:10" />	
	<line x1="600" y1="300" x2="800" y2="300" style="stroke:rgb(0,0,0);stroke-width:10" />	
	<line x1="600" y1="300" x2="600" y2="500" style="stroke:rgb(0,0,0);stroke-width:10" />	
	<line x1="800" y1="300" x2="800" y2="500" style="stroke:rgb(0,0,0);stroke-width:10" />	

	<rect x="100" y="500" width="200" height="200" style="fill:rgb(215,25,28);stroke-width:0;stroke:rgb(0,0,0)"></rect>
	<rect x="100" y="700" width="200" height="200" style="fill:rgb(26,150,65);stroke-width:0;stroke:rgb(0,0,0)"></rect>
	<rect x="300" y="500" width="200" height="200" style="fill:rgb(253,174,97);stroke-width:0;stroke:rgb(0,0,0)"></rect>
	<rect x="300" y="700" width="200" height="200" style="fill:rgb(166,217,106);stroke-width:0;stroke:rgb(0,0,0)"></rect>
	<rect x="500" y="500" width="200" height="200" style="fill:rgb(166,217,106);stroke-width:0;stroke:rgb(0,0,0)"></rect>
	<rect x="500" y="700" width="200" height="200" style="fill:rgb(253,174,97);stroke-width:0;stroke:rgb(0,0,0)"></rect>
	<rect x="700" y="500" width="200" height="200" style="fill:rgb(26,150,106);stroke-width:0;stroke:rgb(0,0,0)"></rect>
	<rect x="700" y="700" width="200" height="200" style="fill:rgb(215,25,28);stroke-width:0;stroke:rgb(0,0,0)"></rect>

</svg>
